<svg width="21" height="21" viewBox="0 0 21 21" fill="none" xmlns="http://www.w3.org/2000/svg">
<g clip-path="url(#clip0_6_179)">
<path d="M6.5625 0C6.73655 0 6.90347 0.0691404 7.02654 0.192211C7.14961 0.315282 7.21875 0.482202 7.21875 0.65625V2.625H8.53125V0.65625C8.53125 0.482202 8.60039 0.315282 8.72346 0.192211C8.84653 0.0691404 9.01345 0 9.1875 0C9.36155 0 9.52847 0.0691404 9.65154 0.192211C9.77461 0.315282 9.84375 0.482202 9.84375 0.65625V2.625H11.1562V0.65625C11.1562 0.482202 11.2254 0.315282 11.3485 0.192211C11.4715 0.0691404 11.6385 0 11.8125 0C11.9865 0 12.1535 0.0691404 12.2765 0.192211C12.3996 0.315282 12.4688 0.482202 12.4688 0.65625V2.625H13.7812V0.65625C13.7812 0.482202 13.8504 0.315282 13.9735 0.192211C14.0965 0.0691404 14.2635 0 14.4375 0C14.6115 0 14.7785 0.0691404 14.9015 0.192211C15.0246 0.315282 15.0938 0.482202 15.0938 0.65625V2.625C15.964 2.625 16.7986 2.9707 17.4139 3.58606C18.0293 4.20141 18.375 5.03601 18.375 5.90625H20.3438C20.5178 5.90625 20.6847 5.97539 20.8078 6.09846C20.9309 6.22153 21 6.38845 21 6.5625C21 6.73655 20.9309 6.90347 20.8078 7.02654C20.6847 7.14961 20.5178 7.21875 20.3438 7.21875H18.375V8.53125H20.3438C20.5178 8.53125 20.6847 8.60039 20.8078 8.72346C20.9309 8.84653 21 9.01345 21 9.1875C21 9.36155 20.9309 9.52847 20.8078 9.65154C20.6847 9.77461 20.5178 9.84375 20.3438 9.84375H18.375V11.1562H20.3438C20.5178 11.1562 20.6847 11.2254 20.8078 11.3485C20.9309 11.4715 21 11.6385 21 11.8125C21 11.9865 20.9309 12.1535 20.8078 12.2765C20.6847 12.3996 20.5178 12.4688 20.3438 12.4688H18.375V13.7812H20.3438C20.5178 13.7812 20.6847 13.8504 20.8078 13.9735C20.9309 14.0965 21 14.2635 21 14.4375C21 14.6115 20.9309 14.7785 20.8078 14.9015C20.6847 15.0246 20.5178 15.0938 20.3438 15.0938H18.375C18.375 15.964 18.0293 16.7986 17.4139 17.4139C16.7986 18.0293 15.964 18.375 15.0938 18.375V20.3438C15.0938 20.5178 15.0246 20.6847 14.9015 20.8078C14.7785 20.9309 14.6115 21 14.4375 21C14.2635 21 14.0965 20.9309 13.9735 20.8078C13.8504 20.6847 13.7812 20.5178 13.7812 20.3438V18.375H12.4688V20.3438C12.4688 20.5178 12.3996 20.6847 12.2765 20.8078C12.1535 20.9309 11.9865 21 11.8125 21C11.6385 21 11.4715 20.9309 11.3485 20.8078C11.2254 20.6847 11.1562 20.5178 11.1562 20.3438V18.375H9.84375V20.3438C9.84375 20.5178 9.77461 20.6847 9.65154 20.8078C9.52847 20.9309 9.36155 21 9.1875 21C9.01345 21 8.84653 20.9309 8.72346 20.8078C8.60039 20.6847 8.53125 20.5178 8.53125 20.3438V18.375H7.21875V20.3438C7.21875 20.5178 7.14961 20.6847 7.02654 20.8078C6.90347 20.9309 6.73655 21 6.5625 21C6.38845 21 6.22153 20.9309 6.09846 20.8078C5.97539 20.6847 5.90625 20.5178 5.90625 20.3438V18.375C5.03601 18.375 4.20141 18.0293 3.58606 17.4139C2.9707 16.7986 2.625 15.964 2.625 15.0938H0.65625C0.482202 15.0938 0.315282 15.0246 0.192211 14.9015C0.0691404 14.7785 0 14.6115 0 14.4375C0 14.2635 0.0691404 14.0965 0.192211 13.9735C0.315282 13.8504 0.482202 13.7812 0.65625 13.7812H2.625V12.4688H0.65625C0.482202 12.4688 0.315282 12.3996 0.192211 12.2765C0.0691404 12.1535 0 11.9865 0 11.8125C0 11.6385 0.0691404 11.4715 0.192211 11.3485C0.315282 11.2254 0.482202 11.1562 0.65625 11.1562H2.625V9.84375H0.65625C0.482202 9.84375 0.315282 9.77461 0.192211 9.65154C0.0691404 9.52847 0 9.36155 0 9.1875C0 9.01345 0.0691404 8.84653 0.192211 8.72346C0.315282 8.60039 0.482202 8.53125 0.65625 8.53125H2.625V7.21875H0.65625C0.482202 7.21875 0.315282 7.14961 0.192211 7.02654C0.0691404 6.90347 0 6.73655 0 6.5625C0 6.38845 0.0691404 6.22153 0.192211 6.09846C0.315282 5.97539 0.482202 5.90625 0.65625 5.90625H2.625C2.625 5.03601 2.9707 4.20141 3.58606 3.58606C4.20141 2.9707 5.03601 2.625 5.90625 2.625V0.65625C5.90625 0.482202 5.97539 0.315282 6.09846 0.192211C6.22153 0.0691404 6.38845 0 6.5625 0ZM5.90625 3.9375C5.38411 3.9375 4.88335 4.14492 4.51413 4.51413C4.14492 4.88335 3.9375 5.38411 3.9375 5.90625V15.0938C3.9375 15.6159 4.14492 16.1167 4.51413 16.4859C4.88335 16.8551 5.38411 17.0625 5.90625 17.0625H15.0938C15.6159 17.0625 16.1167 16.8551 16.4859 16.4859C16.8551 16.1167 17.0625 15.6159 17.0625 15.0938V5.90625C17.0625 5.38411 16.8551 4.88335 16.4859 4.51413C16.1167 4.14492 15.6159 3.9375 15.0938 3.9375H5.90625ZM6.5625 8.53125C6.5625 8.0091 6.76992 7.50835 7.13913 7.13913C7.50835 6.76992 8.0091 6.5625 8.53125 6.5625H12.4688C12.9909 6.5625 13.4917 6.76992 13.8609 7.13913C14.2301 7.50835 14.4375 8.0091 14.4375 8.53125V12.4688C14.4375 12.9909 14.2301 13.4917 13.8609 13.8609C13.4917 14.2301 12.9909 14.4375 12.4688 14.4375H8.53125C8.0091 14.4375 7.50835 14.2301 7.13913 13.8609C6.76992 13.4917 6.5625 12.9909 6.5625 12.4688V8.53125ZM8.53125 7.875C8.3572 7.875 8.19028 7.94414 8.06721 8.06721C7.94414 8.19028 7.875 8.3572 7.875 8.53125V12.4688C7.875 12.6428 7.94414 12.8097 8.06721 12.9328C8.19028 13.0559 8.3572 13.125 8.53125 13.125H12.4688C12.6428 13.125 12.8097 13.0559 12.9328 12.9328C13.0559 12.8097 13.125 12.6428 13.125 12.4688V8.53125C13.125 8.3572 13.0559 8.19028 12.9328 8.06721C12.8097 7.94414 12.6428 7.875 12.4688 7.875H8.53125Z" fill="#646464"/>
</g>
<defs>
<clipPath id="clip0_6_179">
<rect width="21" height="21" fill="white"/>
</clipPath>
</defs>
</svg>
