<svg width="20" height="21" viewBox="0 0 20 21" fill="none" xmlns="http://www.w3.org/2000/svg">
<path d="M1.66669 4.66667C1.66669 4.22464 1.84228 3.80072 2.15484 3.48816C2.4674 3.17559 2.89133 3 3.33335 3H16.6667C17.1087 3 17.5326 3.17559 17.8452 3.48816C18.1578 3.80072 18.3334 4.22464 18.3334 4.66667V13.8333C18.3334 14.2754 18.1578 14.6993 17.8452 15.0118C17.5326 15.3244 17.1087 15.5 16.6667 15.5H10.8334V17.1667H13.3334C13.5544 17.1667 13.7663 17.2545 13.9226 17.4107C14.0789 17.567 14.1667 17.779 14.1667 18C14.1667 18.221 14.0789 18.433 13.9226 18.5893C13.7663 18.7455 13.5544 18.8333 13.3334 18.8333H6.66669C6.44567 18.8333 6.23371 18.7455 6.07743 18.5893C5.92115 18.433 5.83335 18.221 5.83335 18C5.83335 17.779 5.92115 17.567 6.07743 17.4107C6.23371 17.2545 6.44567 17.1667 6.66669 17.1667H9.16669V15.5H3.33335C2.89133 15.5 2.4674 15.3244 2.15484 15.0118C1.84228 14.6993 1.66669 14.2754 1.66669 13.8333V4.66667ZM16.6667 13.8333V4.66667H3.33335V13.8333H16.6667Z" fill="#646464"/>
</svg>
