<svg width="20" height="21" viewBox="0 0 20 21" fill="none" xmlns="http://www.w3.org/2000/svg">
<path d="M11.25 1.3125H8.75C7.42436 1.31402 6.15343 1.86763 5.21607 2.85187C4.2787 3.8361 3.75145 5.17058 3.75 6.5625V14.4375C3.75145 15.8294 4.2787 17.1639 5.21607 18.1481C6.15343 19.1324 7.42436 19.686 8.75 19.6875H11.25C12.5756 19.686 13.8466 19.1324 14.7839 18.1481C15.7213 17.1639 16.2486 15.8294 16.25 14.4375V6.5625C16.2486 5.17058 15.7213 3.8361 14.7839 2.85187C13.8466 1.86763 12.5756 1.31402 11.25 1.3125ZM15 6.5625V8.53125H10.625V2.625H11.25C12.2442 2.62609 13.1975 3.04128 13.9005 3.77947C14.6035 4.51766 14.999 5.51854 15 6.5625ZM8.75 2.625H9.375V8.53125H5V6.5625C5.00103 5.51854 5.39645 4.51766 6.09949 3.77947C6.80253 3.04128 7.75576 2.62609 8.75 2.625ZM11.25 18.375H8.75C7.75576 18.3739 6.80253 17.9587 6.09949 17.2205C5.39645 16.4823 5.00103 15.4815 5 14.4375V9.84375H15V14.4375C14.999 15.4815 14.6035 16.4823 13.9005 17.2205C13.1975 17.9587 12.2442 18.3739 11.25 18.375Z" fill="#646464"/>
</svg>
