<svg width="28" height="29" viewBox="0 0 28 29" fill="none" xmlns="http://www.w3.org/2000/svg">
<path d="M24.1292 7.08C24.0676 7.00606 23.9905 6.94657 23.9034 6.90575C23.8163 6.86492 23.7212 6.84375 23.625 6.84375H5.79688L5.23141 3.72656C5.16734 3.37355 4.98135 3.05424 4.70589 2.82436C4.43043 2.59448 4.083 2.46862 3.72422 2.46875H1.75C1.57595 2.46875 1.40903 2.53789 1.28596 2.66096C1.16289 2.78403 1.09375 2.95095 1.09375 3.125C1.09375 3.29905 1.16289 3.46597 1.28596 3.58904C1.40903 3.71211 1.57595 3.78125 1.75 3.78125H3.71875C3.77055 3.78041 3.82096 3.79797 3.86102 3.83082C3.90108 3.86367 3.92818 3.90967 3.9375 3.96063L6.72766 19.3059C6.81616 19.7954 7.05467 20.2453 7.41016 20.5933C6.98089 20.9366 6.66034 21.397 6.48728 21.9188C6.31422 22.4405 6.29608 23.0012 6.43506 23.533C6.57403 24.0648 6.86416 24.545 7.27034 24.9154C7.67651 25.2857 8.18133 25.5305 8.72368 25.6199C9.26604 25.7093 9.8227 25.6397 10.3263 25.4193C10.8299 25.199 11.2588 24.8375 11.5612 24.3784C11.8636 23.9194 12.0265 23.3825 12.0301 22.8329C12.0337 22.2832 11.878 21.7443 11.5817 21.2812H17.2933C16.9532 21.8134 16.8 22.4437 16.8577 23.0726C16.9155 23.7016 17.181 24.2934 17.6124 24.7547C18.0437 25.216 18.6164 25.5206 19.24 25.6205C19.8636 25.7203 20.5028 25.6097 21.0566 25.3061C21.6104 25.0025 22.0474 24.5232 22.2986 23.9438C22.5499 23.3643 22.6011 22.7177 22.4441 22.1059C22.2872 21.4942 21.9311 20.952 21.432 20.5651C20.9328 20.1781 20.3191 19.9683 19.6875 19.9688H9.09672C8.84057 19.9688 8.59253 19.8789 8.39585 19.7148C8.19917 19.5507 8.06632 19.3228 8.02047 19.0708L7.62672 16.9062H20.5734C21.137 16.9064 21.6827 16.7087 22.1154 16.3478C22.5482 15.9868 22.8405 15.4854 22.9414 14.9309L24.2703 7.61703C24.2875 7.52264 24.2837 7.42564 24.2594 7.33286C24.235 7.24007 24.1906 7.15376 24.1292 7.08ZM10.7188 22.8125C10.7188 23.1154 10.6289 23.4114 10.4607 23.6632C10.2924 23.915 10.0533 24.1113 9.77348 24.2272C9.49368 24.3431 9.1858 24.3734 8.88877 24.3143C8.59173 24.2552 8.31889 24.1094 8.10474 23.8953C7.89059 23.6811 7.74476 23.4083 7.68567 23.1112C7.62659 22.8142 7.65691 22.5063 7.77281 22.2265C7.88871 21.9467 8.08497 21.7076 8.33678 21.5393C8.5886 21.3711 8.88465 21.2812 9.1875 21.2812C9.59361 21.2812 9.98309 21.4426 10.2703 21.7297C10.5574 22.0169 10.7188 22.4064 10.7188 22.8125ZM21.2188 22.8125C21.2188 23.1154 21.1289 23.4114 20.9607 23.6632C20.7924 23.915 20.5533 24.1113 20.2735 24.2272C19.9937 24.3431 19.6858 24.3734 19.3888 24.3143C19.0917 24.2552 18.8189 24.1094 18.6047 23.8953C18.3906 23.6811 18.2448 23.4083 18.1857 23.1112C18.1266 22.8142 18.1569 22.5063 18.2728 22.2265C18.3887 21.9467 18.585 21.7076 18.8368 21.5393C19.0886 21.3711 19.3846 21.2812 19.6875 21.2812C20.0936 21.2812 20.4831 21.4426 20.7703 21.7297C21.0574 22.0169 21.2188 22.4064 21.2188 22.8125ZM21.6497 14.6958C21.6038 14.9478 21.471 15.1757 21.2743 15.3398C21.0776 15.5039 20.8296 15.5938 20.5734 15.5938H7.38828L6.03641 8.15625H22.8386L21.6497 14.6958Z" fill="#444444"/>
</svg>
