<svg width="28" height="28" viewBox="0 0 28 28" fill="none" xmlns="http://www.w3.org/2000/svg">
<path d="M24.5 23.625L17.9375 17.0625M4.375 11.375C4.375 12.4092 4.57869 13.4332 4.97445 14.3886C5.3702 15.3441 5.95027 16.2122 6.68153 16.9435C7.4128 17.6747 8.28093 18.2548 9.23637 18.6506C10.1918 19.0463 11.2158 19.25 12.25 19.25C13.2842 19.25 14.3082 19.0463 15.2636 18.6506C16.2191 18.2548 17.0872 17.6747 17.8185 16.9435C18.5497 16.2122 19.1298 15.3441 19.5256 14.3886C19.9213 13.4332 20.125 12.4092 20.125 11.375C20.125 9.28642 19.2953 7.28338 17.8185 5.80653C16.3416 4.32969 14.3386 3.5 12.25 3.5C10.1614 3.5 8.15838 4.32969 6.68153 5.80653C5.20469 7.28338 4.375 9.28642 4.375 11.375Z" stroke="#797979" stroke-width="2" stroke-linecap="round" stroke-linejoin="round"/>
</svg>
