<svg width="20" height="19" viewBox="0 0 20 19" fill="none" xmlns="http://www.w3.org/2000/svg">
<g clip-path="url(#clip0_6_173)">
<path d="M5 14.2365C3.70583 14.1993 2.93333 14.0624 2.39916 13.5541C1.66666 12.859 1.66666 11.7388 1.66666 9.5C1.66666 7.26117 1.66666 6.14096 2.39916 5.44588C3.13083 4.75 4.31 4.75 6.66666 4.75H13.3333C15.69 4.75 16.8692 4.75 17.6008 5.44588C18.3333 6.14096 18.3333 7.26117 18.3333 9.5C18.3333 11.7388 18.3333 12.859 17.6008 13.5541C17.0667 14.0624 16.295 14.1993 15 14.2365" stroke="#646464" stroke-width="1.5"/>
<path d="M7.5 7.91669H5M15.8333 11.875H4.16666" stroke="#646464" stroke-width="1.5" stroke-linecap="round"/>
<path d="M15.625 11.875C15.625 11.7175 15.5591 11.5665 15.4419 11.4552C15.3247 11.3438 15.1658 11.2813 15 11.2813C14.8342 11.2813 14.6753 11.3438 14.5581 11.4552C14.4408 11.5665 14.375 11.7175 14.375 11.875H15.625ZM5.62499 11.875C5.62499 11.7175 5.55915 11.5665 5.44194 11.4552C5.32473 11.3438 5.16575 11.2813 4.99999 11.2813C4.83423 11.2813 4.67526 11.3438 4.55805 11.4552C4.44084 11.5665 4.37499 11.7175 4.37499 11.875H5.62499ZM14.375 12.6667C14.375 13.8027 14.3733 14.5952 14.2892 15.1937C14.2067 15.7748 14.0558 16.0819 13.8258 16.3012L14.7092 17.1404C15.2117 16.6646 15.4267 16.0637 15.5283 15.3512C15.6267 14.6561 15.625 13.7695 15.625 12.6667H14.375ZM9.99999 18.0104C11.1608 18.0104 12.0942 18.012 12.8267 17.9186C13.5767 17.822 14.2083 17.6178 14.71 17.1412L13.825 16.3004C13.5942 16.5197 13.2708 16.6622 12.6583 16.7406C12.0292 16.8206 11.195 16.8221 9.99916 16.8221V18.0096L9.99999 18.0104ZM9.99999 2.1771C11.1958 2.1771 12.0308 2.17868 12.66 2.25864C13.2717 2.33701 13.595 2.4803 13.8258 2.6988L14.7092 1.85964C14.2083 1.38226 13.5758 1.17801 12.8258 1.08222C12.0942 0.988012 11.1608 0.989595 9.99999 0.989595V2.1771ZM9.99999 0.989595C8.83916 0.989595 7.90583 0.988012 7.17333 1.08222C6.42333 1.17722 5.79166 1.38305 5.28999 1.85885L6.17499 2.6996C6.40583 2.4803 6.72916 2.3378 7.34166 2.25943C7.96999 2.17947 8.80499 2.17789 10.0008 2.17789V0.990387L9.99999 0.989595ZM4.37499 12.6667C4.37499 13.7695 4.37333 14.6561 4.47249 15.352C4.57249 16.0645 4.78916 16.6646 5.28999 17.1412L6.17499 16.3004C5.94416 16.0811 5.79416 15.774 5.71166 15.1921C5.62749 14.5944 5.62583 13.8019 5.62583 12.6659H4.37583L4.37499 12.6667ZM9.99999 16.8229C8.80416 16.8229 7.96916 16.8213 7.33999 16.7414C6.72833 16.663 6.40499 16.5197 6.17416 16.3012L5.29083 17.1404C5.79166 17.6178 6.42416 17.822 7.17416 17.9186C7.90583 18.012 8.83916 18.0104 9.99999 18.0104V16.8229ZM15.61 4.7318C15.5717 3.51105 15.4367 2.54918 14.71 1.85885L13.825 2.6996C14.1667 3.02418 14.3208 3.53005 14.36 4.76901L15.61 4.7318ZM5.63916 4.76822C5.67833 3.52926 5.83166 3.02418 6.17416 2.6988L5.29083 1.85964C4.56333 2.54918 4.42833 3.51105 4.38999 4.7318L5.63916 4.76822ZM15.625 12.6667V11.875H14.375V12.6667H15.625ZM5.62499 12.6667V11.875H4.37499V12.6667H5.62499Z" fill="#646464"/>
<path d="M14.1667 8.70833C14.6269 8.70833 15 8.35389 15 7.91667C15 7.47944 14.6269 7.125 14.1667 7.125C13.7064 7.125 13.3333 7.47944 13.3333 7.91667C13.3333 8.35389 13.7064 8.70833 14.1667 8.70833Z" fill="#646464"/>
</g>
<defs>
<clipPath id="clip0_6_173">
<rect width="20" height="19" fill="white"/>
</clipPath>
</defs>
</svg>
