<svg width="28" height="29" viewBox="0 0 28 29" fill="none" xmlns="http://www.w3.org/2000/svg">
<g clip-path="url(#clip0_5_56)">
<path d="M14 25.7233C13.8281 25.7228 13.6613 25.6654 13.5256 25.56C9.20111 22.2 6.22222 19.3067 4.13778 16.4522C1.47778 12.8045 0.871109 9.43667 2.33333 6.44223C3.37555 4.30334 6.37 2.55334 9.87 3.57223C11.5388 4.05425 12.9947 5.08795 14 6.50445C15.0053 5.08795 16.4612 4.05425 18.13 3.57223C21.6222 2.5689 24.6244 4.30334 25.6667 6.44223C27.1289 9.43667 26.5222 12.8045 23.8622 16.4522C21.7778 19.3067 18.7989 22.2 14.4744 25.56C14.3387 25.6654 14.1718 25.7228 14 25.7233ZM7.87889 4.84001C7.04608 4.80759 6.22018 5.0026 5.48982 5.40409C4.75947 5.80558 4.15224 6.39839 3.73333 7.1189C2.52778 9.59223 3.07222 12.3456 5.39778 15.5267C7.86922 18.7145 10.7632 21.5509 14 23.9578C17.2363 21.5533 20.1302 18.7195 22.6022 15.5345C24.9356 12.3456 25.4722 9.59223 24.2667 7.12667C23.4889 5.57112 21.1556 4.33445 18.5578 5.06556C17.7248 5.31173 16.9526 5.72956 16.2909 6.29218C15.6291 6.85479 15.0925 7.54971 14.7156 8.33223C14.657 8.47488 14.5573 8.59689 14.4292 8.68276C14.3011 8.76863 14.1503 8.81448 13.9961 8.81448C13.8419 8.81448 13.6912 8.76863 13.563 8.68276C13.4349 8.59689 13.3353 8.47488 13.2767 8.33223C12.9025 7.54776 12.3668 6.85121 11.7047 6.28824C11.0425 5.72528 10.2689 5.30862 9.43444 5.06556C8.92887 4.91872 8.40535 4.84281 7.87889 4.84001Z" fill="#444444"/>
</g>
<defs>
<clipPath id="clip0_5_56">
<rect width="28" height="28" fill="white" transform="translate(0 0.5)"/>
</clipPath>
</defs>
</svg>
