<svg width="184" height="39" viewBox="0 0 184 39" fill="none" xmlns="http://www.w3.org/2000/svg">
<path d="M0 39C10.4715 35.4708 31.5144 28.33 31.9133 28H151.588L184 39H0Z" fill="#DEE0F8"/>
<g clip-path="url(#clip0_5_85)">
<path d="M66.5961 36L39.9494 17.5189C39.0407 16.89 38.2988 16.0539 37.7866 15.0815C37.2744 14.1091 37.007 13.0291 37.007 11.9329C37.007 10.8367 37.2744 9.75671 37.7866 8.78433C38.2988 7.81194 39.0407 6.97587 39.9494 6.34694L46.4039 1.89163L73.0506 20.3751C73.9589 21.0044 74.7003 21.8406 75.2121 22.8129C75.724 23.7853 75.9912 24.8651 75.9912 25.9611C75.9912 27.0571 75.724 28.137 75.2121 29.1093C74.7003 30.0816 73.9589 30.9178 73.0506 31.5471L66.5961 36ZM46.4014 4.86344L41.3704 8.34099C40.7856 8.74532 40.3081 9.28304 39.9784 9.90855C39.6487 10.5341 39.4766 11.2289 39.4766 11.9341C39.4766 12.6394 39.6487 13.3342 39.9784 13.9597C40.3081 14.5852 40.7856 15.1229 41.3704 15.5273L66.6034 33.0282L71.6344 29.5531C72.2188 29.1484 72.6959 28.6105 73.0252 27.9851C73.3546 27.3596 73.5265 26.665 73.5265 25.9599C73.5265 25.2549 73.3546 24.5602 73.0252 23.9347C72.6959 23.3093 72.2188 22.7714 71.6344 22.3668L46.4014 4.86344Z" fill="#A3ABF4"/>
<path d="M46.3771 33.0113L41.3534 29.5266C40.769 29.1219 40.292 28.5841 39.9626 27.9586C39.6333 27.3331 39.4613 26.6385 39.4613 25.9334C39.4613 25.2284 39.6333 24.5337 39.9626 23.9083C40.292 23.2828 40.769 22.745 41.3534 22.3403L54.3574 13.3574L52.2124 11.8739L39.9469 20.3462C39.0382 20.9752 38.2964 21.8112 37.7841 22.7836C37.2719 23.756 37.0045 24.836 37.0045 25.9322C37.0045 27.0284 37.2719 28.1084 37.7841 29.0808C38.2964 30.0532 39.0382 30.8893 39.9469 31.5182L46.3844 35.9832L54.3477 30.4778L52.2027 28.9895L46.3771 33.0113Z" fill="#17029B"/>
<path d="M73.0628 6.37342L66.6229 1.90848L58.6523 7.41861L60.7973 8.90692L66.6205 4.88992L71.6466 8.37469C72.231 8.77936 72.708 9.3172 73.0374 9.94266C73.3668 10.5681 73.5387 11.2628 73.5387 11.9678C73.5387 12.6729 73.3668 13.3675 73.0374 13.993C72.708 14.6185 72.231 15.1563 71.6466 15.561L58.6401 24.5366L60.7851 26.0249L73.0531 17.5454C73.9618 16.9165 74.7037 16.0804 75.2159 15.108C75.7281 14.1356 75.9955 13.0556 75.9955 11.9594C75.9955 10.8632 75.7281 9.78319 75.2159 8.81081C74.7037 7.83842 73.9618 7.00235 73.0531 6.37342H73.0628Z" fill="#17029B"/>
<path d="M51.6141 12.2743L41.4804 19.2797L42.8932 21.2746L53.0269 14.2692L51.6141 12.2743Z" fill="#17029B"/>
<path d="M70.3353 16.4496L65.3993 19.8646L66.8106 21.8586L71.9294 18.3161C71.3931 17.7044 70.8642 17.0782 70.3353 16.4496Z" fill="#17029B"/>
</g>
<path d="M83.7939 6.67188H87.2803L93.1104 22.7266L98.9258 6.67188H102.427L94.502 28H91.7041L83.7939 6.67188ZM82.0361 6.67188H85.4492L86.0645 21.4229V28H82.0361V6.67188ZM100.757 6.67188H104.185V28H100.156V21.4229L100.757 6.67188ZM107.305 20.2363V19.9287C107.305 18.7666 107.471 17.6973 107.803 16.7207C108.135 15.7344 108.618 14.8799 109.253 14.1572C109.888 13.4346 110.664 12.873 111.582 12.4727C112.5 12.0625 113.545 11.8574 114.717 11.8574C115.908 11.8574 116.963 12.0625 117.881 12.4727C118.809 12.873 119.59 13.4346 120.225 14.1572C120.859 14.8799 121.343 15.7344 121.675 16.7207C122.007 17.6973 122.173 18.7666 122.173 19.9287V20.2363C122.173 21.3887 122.007 22.458 121.675 23.4443C121.343 24.4209 120.859 25.2754 120.225 26.0078C119.59 26.7305 118.813 27.292 117.896 27.6924C116.978 28.0928 115.928 28.293 114.746 28.293C113.574 28.293 112.524 28.0928 111.597 27.6924C110.669 27.292 109.888 26.7305 109.253 26.0078C108.618 25.2754 108.135 24.4209 107.803 23.4443C107.471 22.458 107.305 21.3887 107.305 20.2363ZM111.172 19.9287V20.2363C111.172 20.9297 111.24 21.5791 111.377 22.1846C111.514 22.79 111.724 23.3223 112.007 23.7812C112.29 24.2402 112.656 24.6016 113.105 24.8652C113.564 25.1191 114.111 25.2461 114.746 25.2461C115.371 25.2461 115.908 25.1191 116.357 24.8652C116.807 24.6016 117.173 24.2402 117.456 23.7812C117.749 23.3223 117.964 22.79 118.101 22.1846C118.237 21.5791 118.306 20.9297 118.306 20.2363V19.9287C118.306 19.2451 118.237 18.6055 118.101 18.0098C117.964 17.4043 117.749 16.8721 117.456 16.4131C117.173 15.9443 116.802 15.5781 116.343 15.3145C115.894 15.041 115.352 14.9043 114.717 14.9043C114.092 14.9043 113.555 15.041 113.105 15.3145C112.656 15.5781 112.29 15.9443 112.007 16.4131C111.724 16.8721 111.514 17.4043 111.377 18.0098C111.24 18.6055 111.172 19.2451 111.172 19.9287ZM124.971 5.5H128.853V24.499L128.472 28H124.971V5.5ZM139.048 19.9141V20.2217C139.048 21.4033 138.916 22.4873 138.652 23.4736C138.398 24.46 138.013 25.3145 137.495 26.0371C136.978 26.75 136.333 27.3066 135.562 27.707C134.8 28.0977 133.906 28.293 132.881 28.293C131.904 28.293 131.055 28.1025 130.332 27.7217C129.619 27.3408 129.019 26.8037 128.53 26.1104C128.042 25.4072 127.651 24.582 127.358 23.6348C127.065 22.6777 126.846 21.6328 126.699 20.5V19.665C126.846 18.5225 127.065 17.4775 127.358 16.5303C127.651 15.583 128.042 14.7578 128.53 14.0547C129.019 13.3516 129.619 12.8096 130.332 12.4287C131.045 12.0479 131.885 11.8574 132.852 11.8574C133.887 11.8574 134.79 12.0576 135.562 12.458C136.343 12.8486 136.987 13.4053 137.495 14.1279C138.013 14.8408 138.398 15.6904 138.652 16.6768C138.916 17.6533 139.048 18.7324 139.048 19.9141ZM135.166 20.2217V19.9141C135.166 19.2402 135.112 18.6055 135.005 18.0098C134.897 17.4043 134.722 16.8721 134.478 16.4131C134.233 15.9541 133.901 15.5928 133.481 15.3291C133.062 15.0654 132.534 14.9336 131.899 14.9336C131.294 14.9336 130.776 15.0361 130.347 15.2412C129.927 15.4463 129.575 15.7295 129.292 16.0908C129.019 16.4521 128.804 16.877 128.647 17.3652C128.501 17.8535 128.403 18.3809 128.354 18.9473V21.2324C128.423 21.9844 128.584 22.6631 128.838 23.2686C129.092 23.8643 129.468 24.3379 129.966 24.6895C130.474 25.041 131.128 25.2168 131.929 25.2168C132.554 25.2168 133.076 25.0947 133.496 24.8506C133.916 24.5967 134.248 24.2451 134.492 23.7959C134.736 23.3369 134.907 22.8047 135.005 22.1992C135.112 21.5938 135.166 20.9346 135.166 20.2217ZM145.962 12.1504V28H142.08V12.1504H145.962ZM141.816 8.00488C141.816 7.42871 142.012 6.9502 142.402 6.56934C142.803 6.18848 143.34 5.99805 144.014 5.99805C144.688 5.99805 145.22 6.18848 145.61 6.56934C146.011 6.9502 146.211 7.42871 146.211 8.00488C146.211 8.57129 146.011 9.04492 145.61 9.42578C145.22 9.80664 144.688 9.99707 144.014 9.99707C143.34 9.99707 142.803 9.80664 142.402 9.42578C142.012 9.04492 141.816 8.57129 141.816 8.00488Z" fill="#313131"/>
<defs>
<clipPath id="clip0_5_85">
<rect width="39" height="34" fill="white" transform="translate(37 2)"/>
</clipPath>
</defs>
</svg>
