<svg width="20" height="21" viewBox="0 0 20 21" fill="none" xmlns="http://www.w3.org/2000/svg">
<path d="M13.75 9.1875H11.875C11.7092 9.1875 11.5503 9.11836 11.4331 8.99529C11.3158 8.87222 11.25 8.7053 11.25 8.53125C11.25 8.3572 11.3158 8.19028 11.4331 8.06721C11.5503 7.94414 11.7092 7.875 11.875 7.875H13.75C13.9158 7.875 14.0747 7.94414 14.1919 8.06721C14.3092 8.19028 14.375 8.3572 14.375 8.53125C14.375 8.7053 14.3092 8.87222 14.1919 8.99529C14.0747 9.11836 13.9158 9.1875 13.75 9.1875ZM8.125 7.875H7.5V7.21875C7.5 7.0447 7.43415 6.87778 7.31694 6.75471C7.19973 6.63164 7.04076 6.5625 6.875 6.5625C6.70924 6.5625 6.55027 6.63164 6.43306 6.75471C6.31585 6.87778 6.25 7.0447 6.25 7.21875V7.875H5.625C5.45924 7.875 5.30027 7.94414 5.18306 8.06721C5.06585 8.19028 5 8.3572 5 8.53125C5 8.7053 5.06585 8.87222 5.18306 8.99529C5.30027 9.11836 5.45924 9.1875 5.625 9.1875H6.25V9.84375C6.25 10.0178 6.31585 10.1847 6.43306 10.3078C6.55027 10.4309 6.70924 10.5 6.875 10.5C7.04076 10.5 7.19973 10.4309 7.31694 10.3078C7.43415 10.1847 7.5 10.0178 7.5 9.84375V9.1875H8.125C8.29076 9.1875 8.44973 9.11836 8.56694 8.99529C8.68415 8.87222 8.75 8.7053 8.75 8.53125C8.75 8.3572 8.68415 8.19028 8.56694 8.06721C8.44973 7.94414 8.29076 7.875 8.125 7.875ZM18.8656 16.4596C18.6301 16.8128 18.3237 17.1075 17.9681 17.3231C17.6125 17.5387 17.2162 17.6699 16.8071 17.7075C16.3981 17.7451 15.9861 17.6882 15.6002 17.5408C15.2143 17.3933 14.8639 17.159 14.5734 16.8541C14.5641 16.8443 14.5547 16.8345 14.5461 16.8238L11.4437 13.125H8.55312L5.4539 16.8238L5.42656 16.8541C4.89859 17.4073 4.18335 17.7182 3.4375 17.7188C3.0269 17.7186 2.62132 17.624 2.24924 17.4417C1.87716 17.2594 1.54761 16.9938 1.28374 16.6635C1.01986 16.3332 0.828069 15.9462 0.721825 15.5298C0.61558 15.1133 0.597464 14.6775 0.668748 14.2529C0.668371 14.2491 0.668371 14.2453 0.668748 14.2414L1.94765 7.34344C2.13799 6.20572 2.70411 5.17483 3.54653 4.43191C4.38895 3.689 5.45377 3.28158 6.5539 3.28125H13.4375C14.5343 3.28309 15.5959 3.68817 16.4379 4.42618C17.2799 5.16419 17.8492 6.1885 18.0469 7.32129V7.33605L19.3258 14.2406C19.3262 14.2444 19.3262 14.2483 19.3258 14.2521C19.392 14.6337 19.3854 15.0253 19.3064 15.4043C19.2274 15.7832 19.0776 16.1419 18.8656 16.4596ZM13.4375 11.8125C14.3492 11.8125 15.2235 11.4322 15.8682 10.7553C16.5128 10.0784 16.875 9.16039 16.875 8.20312C16.875 7.24586 16.5128 6.3278 15.8682 5.65091C15.2235 4.97402 14.3492 4.59375 13.4375 4.59375H6.5539C5.74683 4.59451 4.96587 4.89409 4.34841 5.4398C3.73095 5.9855 3.31656 6.74236 3.17812 7.57723V7.58789L1.89843 14.4859C1.84187 14.8279 1.89006 15.1799 2.03607 15.4913C2.18209 15.8027 2.4184 16.0575 2.71102 16.2189C3.00365 16.3804 3.33751 16.4403 3.66458 16.3899C3.99165 16.3395 4.29509 16.1816 4.53125 15.9387L7.80625 12.0348C7.86489 11.965 7.93701 11.909 8.01783 11.8707C8.09865 11.8323 8.18632 11.8125 8.275 11.8125H13.4375ZM18.1016 14.4859L17.4187 10.7945C16.9988 11.5065 16.4128 12.0943 15.7161 12.5021C15.0194 12.9099 14.2351 13.1243 13.4375 13.125H13.1094L15.4687 15.9395C15.6466 16.1212 15.863 16.256 16.1001 16.3328C16.3372 16.4097 16.5883 16.4264 16.8328 16.3816C17.2401 16.3062 17.6022 16.0642 17.8399 15.7089C18.0776 15.3535 18.1714 14.9138 18.1008 14.4859H18.1016Z" fill="#646464"/>
</svg>
